<svg version="1.1" xmlns="http://www.w3.org/2000/svg" xmlns:xlink="http://www.w3.org/1999/xlink" width="510" height="510" viewbox="0 0 510 510">
<g>
  <circle fill="#FFFFFF" stroke="#01417B" stroke-width="8" cx="255" cy="255" r="251"/>
  <circle fill="#FFFFFF" stroke="#01417B" stroke-width="8" cx="255" cy="254" r="182.36"/>
  <path fill="#01417B" d="M80.221,306.189L140.86,190.5l16,30.25l52.75-93.25l37.75,79.75l-27,56.25l11.5-0.25l65-135.75l51.75,93.25
    L364.86,191l63.297,120.35c0,0-38.85,125.01-173.156,125.01C120.693,436.359,80.221,306.189,80.221,306.189z"/>
  <polygon fill="#FFFFFF" points="244.86,382.75 244.86,276.25 268.86,276.25 286.61,302.5 305.86,276.25 329.86,276.25
    329.86,382.75 305.86,382.75 305.86,319.25 287.36,342 268.86,319.25 268.86,382.75   "/>
  <rect x="342.61" y="276.25" fill="#FFFFFF" width="23.25" height="106.5"/>
  <path fill="#FFFFFF" d="M144.314,382.75l28.5-106.5h31.5l33.75,106.5h-27l-7.5-21.5l-29,0.25l-5.25,21.25H144.314z M179.564,340
    h17.5l-9.5-30.5L179.564,340z"/>
  <g>
    <circle fill="none" cx="255.188" cy="253.339" r="190.187"/>
    <path fill="#01417B" d="M72.642,113.797l4.082-5.176l29.945,9.055l-4.004,5.078l-6.792-2.168l-7.311,9.271l3.666,6.132
      l-3.746,4.75L72.642,113.797z M79.218,114.891l-0.052,0.065l6.826,10.749l5.27-6.683L79.218,114.891z"/>
    <path fill="#01417B" d="M108.047,83.763c-1.885,0.667-3.695,1.721-5.193,3.111c-1.468,1.361-2.768,3.762-0.612,6.086
      c3.433,3.7,11.343-6.539,17.98,0.616c4.34,4.678,2.285,9.884-2.026,13.884c-2.324,2.156-3.647,2.814-6.239,4.252l-3.177-4.222
      c2.205-0.566,4.369-1.607,6.051-3.167c1.621-1.503,3.026-4.343,1.239-6.27c-3.773-4.067-11.57,6.295-18.122-0.769
      c-4.425-4.771-2.342-9.946,1.419-13.435c1.835-1.702,3.774-3.046,5.816-3.973L108.047,83.763z"/>
    <path fill="#01417B" d="M132.301,65.409c-1.958,0.408-3.893,1.208-5.565,2.385c-1.638,1.152-3.249,3.356-1.425,5.95
      c2.904,4.128,12.121-4.957,17.737,3.027c3.672,5.22,0.936,10.104-3.875,13.488c-2.593,1.824-3.993,2.299-6.755,3.375l-2.581-4.611
      c2.262-0.265,4.546-1.005,6.423-2.325c1.808-1.272,3.583-3.897,2.07-6.047c-3.192-4.538-12.312,4.683-17.857-3.198
      c-3.744-5.322-0.984-10.171,3.212-13.124c2.047-1.44,4.15-2.512,6.298-3.156L132.301,65.409z"/>
    <path fill="#01417B" d="M155.157,45.921c8.227-3.974,15.533-0.645,19.361,7.282c3.828,7.927,2.041,15.832-6.262,19.841
      c-8.415,4.064-15.551,0.607-19.434-7.432C144.939,57.573,146.817,49.949,155.157,45.921z M166.26,68.912
      c5.372-2.594,5.059-8.327,2.773-13.06c-2.232-4.621-6.659-8.32-11.881-5.798c-5.222,2.521-5.077,8.289-2.846,12.91
      C156.593,67.697,160.888,71.507,166.26,68.912z"/>
    <path fill="#01417B" d="M211.08,56.803c-1.907,1.067-3.998,2.1-6.123,2.709c-9.062,2.597-16.657-0.131-19.368-9.594
      c-2.746-9.584,1.569-16.635,11.073-19.358c1.844-0.529,4.394-0.869,6.669-0.653l0.955,4.847c-2.47-0.594-4.475-0.323-6.48,0.251
      c-5.774,1.655-8.12,7.1-6.477,12.834c1.631,5.694,6.39,8.974,12.365,7.262c2.206-0.632,4.674-1.86,5.802-2.921L211.08,56.803z"/>
    <path fill="#01417B" d="M213.282,27.401l5.757-0.987l4.921,28.704l-5.757,0.987L213.282,27.401z"/>
    <path fill="#01417B" d="M240.667,24.032l6.584-0.316l12.814,28.539l-6.459,0.31l-2.82-6.548l-11.793,0.566l-2.222,6.79
      l-6.042,0.29L240.667,24.032z M244.156,29.712l-0.083,0.004l-3.633,12.203l8.501-0.408L244.156,29.712z"/>
    <path fill="#01417B" d="M271.879,28.782l-8.312-0.717l0.394-4.572l22.445,1.937l-0.395,4.572l-8.312-0.717l-2.108,24.44
      l-5.819-0.502L271.879,28.782z"/>
    <path fill="#01417B" d="M295.478,27.109l5.738,1.092l-5.443,28.607l-5.737-1.091L295.478,27.109z"/>
    <path fill="#01417B" d="M327.224,34.608c8.679,2.857,11.622,10.327,8.869,18.688s-9.531,12.806-18.288,9.922
      c-8.877-2.922-11.609-10.366-8.817-18.846C311.78,35.892,318.427,31.711,327.224,34.608z M319.24,58.859
      c5.667,1.866,9.424-2.476,11.067-7.468c1.605-4.875,0.99-10.611-4.518-12.424c-5.509-1.813-9.411,2.436-11.016,7.31
      C313.129,51.27,313.573,56.994,319.24,58.859z"/>
    <path fill="#01417B" d="M355.16,46.104l6.288,3.454l-0.757,24.426l0.073,0.04l10.482-19.084l4.898,2.69l-14.016,25.519
      l-6.252-3.434l0.721-24.446l-0.073-0.041l-10.482,19.084l-4.899-2.691L355.16,46.104z"/>
    <path fill="#01417B" d="M412.503,85.229c6.67,6.242,6.197,14.255,0.184,20.682c-6.015,6.427-14.032,7.607-20.763,1.308
      c-6.822-6.385-6.17-14.286-0.069-20.804C397.955,79.896,405.742,78.9,412.503,85.229z M395.059,103.868
      c4.355,4.076,9.59,1.719,13.182-2.119c3.506-3.746,5.361-9.208,1.127-13.17c-4.233-3.962-9.561-1.749-13.066,1.997
      C392.709,94.413,390.704,99.792,395.059,103.868z"/>
    <path fill="#01417B" d="M431.96,106.439l9.964,12.752l-3.615,2.825l-6.369-8.151l-5.652,4.417l6.061,7.757l-3.616,2.825
      l-6.061-7.757l-10.057,7.858l-3.596-4.602L431.96,106.439z"/>
  </g>
  <g>
    <circle fill="none" cx="255.36" cy="255" r="240.667"/>
    <path fill="#01417B" d="M61.036,200.053l-1.794,9.146l-22.93,2.541l-0.016,0.082l20.271,11.016l-1.794,9.146l-28.501-5.592
      l1.074-5.471l23.52,4.614l0.016-0.082l-22.014-12.291l1.073-5.472l25.026-3.062l-0.066-0.098l-23.438-4.599l1.073-5.471
      L61.036,200.053z"/>
    <path fill="#01417B" d="M54.637,254.502c0.147,9.112-5.929,14.33-14.708,14.472s-15.186-4.791-15.334-13.987
      c-0.15-9.321,5.971-14.331,14.875-14.475C48.374,240.368,54.488,245.264,54.637,254.502z M29.171,254.913
      c0.096,5.951,5.417,8.071,10.659,7.986c5.118-0.082,10.323-2.539,10.229-8.323s-5.375-8.071-10.493-7.988
      C34.325,246.672,29.076,248.962,29.171,254.913z"/>
    <path fill="#01417B" d="M55.045,277.621l0.985,5.742l-16.529,2.835c-4.881,0.837-7.813,2.944-7.06,7.333
      c0.752,4.389,4.219,5.398,9.1,4.562l16.529-2.835L59.055,301l-18.293,3.138c-7.67,1.315-11.574-2.491-12.833-9.833
      c-1.259-7.342,1.153-12.23,8.823-13.546L55.045,277.621z"/>
    <path fill="#01417B" d="M61.524,310.533l2.375,6.753l-16.821,17.651l0.028,0.079l20.494-7.209l1.851,5.261l-27.404,9.64
      l-2.361-6.714l16.807-17.691l-0.027-0.078l-20.494,7.208l-1.851-5.261L61.524,310.533z"/>
    <path fill="#01417B" d="M72.324,349.232l-3.921-7.339l4.037-2.157l10.588,19.816l-4.037,2.157l-3.921-7.34l-21.578,11.529
      l-2.745-5.138L72.324,349.232z"/>
    <path fill="#01417B" d="M90.283,370.145l3.855,5.325l-16.842,26.267l-3.782-5.225l3.929-5.927l-6.905-9.539l-6.881,1.848
      l-3.538-4.887L90.283,370.145z M87.442,376.155l-0.049-0.067l-12.172,3.623l4.978,6.876L87.442,376.155z"/>
    <path fill="#01417B" d="M106.195,390.088l3.973,4.26l-21.237,19.811l-3.973-4.26L106.195,390.088z"/>
    <path fill="#01417B" d="M117.247,401.811l5.493,4.59l-5.436,23.77l0.063,0.054l13.931-16.671l4.279,3.576l-18.628,22.292
      l-5.461-4.563l5.404-23.797l-0.064-0.054l-13.931,16.671l-4.279-3.576L117.247,401.811z"/>
    <path fill="#01417B" d="M144.16,422.922l14.66,8.896l-2.375,3.914l-9.679-5.873l-3.714,6.12l8.86,5.376l-2.375,3.915l-8.86-5.377
      l-4.232,6.975l9.75,5.916l-2.375,3.914l-14.731-8.938L144.16,422.922z"/>
    <path fill="#01417B" d="M167.829,436.423l15.729,6.827l-1.823,4.199l-10.384-4.507l-2.851,6.566l9.506,4.126l-1.823,4.2
      l-9.506-4.127l-3.248,7.483l10.46,4.54l-1.823,4.2l-15.806-6.861L167.829,436.423z"/>
    <path fill="#01417B" d="M192.514,446.475l6.06,1.661c6.02,1.65,13.258,3.419,11.124,11.204c-0.902,3.291-3.857,5.415-7.561,4.917
      l-0.022,0.08c1.492,0.539,1.957,2.306,2.178,3.704l1.491,12.188l-6.26-1.716l-0.973-9.673c-0.231-2.307-0.733-3.308-3.101-3.957
      l-1.806-0.495l-3.19,11.639l-5.618-1.541L192.514,446.475z M194.854,459.974l1.846,0.506c2.769,0.76,6.049,1.228,7.007-2.265
      c0.924-3.37-2.129-4.51-4.938-5.279l-1.846-0.507L194.854,459.974z"/>
    <path fill="#01417B" d="M221.598,453.417l5.759,0.887l-4.42,28.714l-5.759-0.887L221.598,453.417z"/>
    <path fill="#01417B" d="M237.517,455.788l7.154,0.204l10.443,22.029l0.083,0.003l0.621-21.713l5.574,0.159l-0.831,29.034
      l-7.113-0.204l-10.484-22.03l-0.083-0.002l-0.621,21.712l-5.574-0.159L237.517,455.788z"/>
    <path fill="#01417B" d="M294.687,458.398c-2.367-0.725-5.321-0.823-7.631-0.507c-6.72,0.923-9.808,5.968-8.998,11.863
      c0.804,5.854,5.037,9.769,11.181,8.925c1.566-0.215,2.781-0.55,3.736-0.934l-1.03-7.503l-6.102,0.838l-0.623-4.536l11.627-1.596
      l2.128,15.502c-2.938,1.243-6.021,2.339-9.113,2.764c-9.318,1.279-16.431-2.491-17.767-12.221
      c-1.354-9.854,3.907-16.205,13.679-17.547c3.34-0.459,6.041-0.367,8.616,0.035L294.687,458.398z"/>
    <path fill="#01417B" d="M320.646,445.417l5.483-1.97l9.82,27.34l-5.483,1.97L320.646,445.417z"/>
    <path fill="#01417B" d="M335.749,439.915l6.38-3.244l19.712,14.347l0.074-0.038l-9.845-19.363l4.971-2.527l13.164,25.892
      l-6.343,3.226l-19.749-14.327l-0.074,0.037l9.845,19.363l-4.971,2.527L335.749,439.915z"/>
    <path fill="#01417B" d="M381.529,418.713c-1.949,0.424-3.873,1.239-5.53,2.426c-1.624,1.164-3.213,3.376-1.371,5.947
      c2.932,4.094,12.048-5.047,17.718,2.869c3.707,5.176,1.02,10.07-3.75,13.486c-2.571,1.842-3.964,2.327-6.71,3.424l-2.613-4.577
      c2.254-0.283,4.526-1.041,6.387-2.374c1.793-1.284,3.541-3.918,2.014-6.049c-3.223-4.499-12.241,4.775-17.839-3.039
      c-3.779-5.276-1.067-10.137,3.094-13.117c2.029-1.454,4.117-2.54,6.255-3.201L381.529,418.713z"/>
    <path fill="#01417B" d="M394.45,406.703l-6.052,5.713l-3.143-3.328l16.34-15.425l3.142,3.328l-6.051,5.713l16.796,17.792
      l-4.236,3.999L394.45,406.703z"/>
    <path fill="#01417B" d="M406.46,388.244l3.924-4.907c3.897-4.875,8.387-10.823,14.691-5.782c2.665,2.131,3.446,5.686,1.523,8.891
      l0.065,0.052c1.085-1.157,2.892-0.885,4.263-0.534l11.783,3.454l-4.054,5.07l-9.268-2.936c-2.21-0.701-3.328-0.636-4.861,1.282
      l-1.169,1.463l9.425,7.535l-3.638,4.551L406.46,388.244z M419.784,391.438l1.195-1.494c1.793-2.243,3.521-5.07,0.693-7.331
      c-2.73-2.183-4.984,0.17-6.804,2.445l-1.195,1.495L419.784,391.438z"/>
    <path fill="#01417B" d="M424.426,364.803l2.887-5.061l14.567,8.308c4.302,2.453,7.904,2.688,10.11-1.18
      c2.206-3.868,0.17-6.85-4.132-9.303l-14.568-8.308l2.887-5.061l16.122,9.193c6.76,3.855,7.357,9.274,3.668,15.745
      c-3.69,6.47-8.659,8.715-15.419,4.859L424.426,364.803z"/>
    <path fill="#01417B" d="M474.642,325.106c-0.282,2.162-0.701,4.451-1.479,6.515c-3.321,8.801-10.028,13.254-19.219,9.786
      c-9.307-3.512-12.379-11.166-8.896-20.396c0.676-1.791,1.923-4.034,3.451-5.726l4.447,2.123c-1.946,1.623-2.925,3.39-3.659,5.336
      c-2.116,5.607,0.845,10.729,6.413,12.83c5.53,2.087,10.989,0.232,13.179-5.57c0.809-2.142,1.297-4.849,1.119-6.384
      L474.642,325.106z"/>
    <path fill="#01417B" d="M455.607,302.791l-1.81,8.124l-4.468-0.995l4.886-21.935l4.468,0.995l-1.81,8.124l23.884,5.32
      l-1.267,5.687L455.607,302.791z"/>
    <path fill="#01417B" d="M455.682,267.727c0.568-9.096,7.034-13.82,15.798-13.273s14.764,5.967,14.19,15.146
      c-0.581,9.304-7.076,13.818-15.965,13.264C460.818,282.308,455.106,276.947,455.682,267.727z M481.101,269.314
      c0.371-5.939-4.767-8.47-10-8.797c-5.108-0.319-10.489,1.722-10.85,7.495c-0.361,5.772,4.725,8.467,9.833,8.786
      C475.318,277.126,480.73,275.254,481.101,269.314z"/>
    <path fill="#01417B" d="M456.578,245.027l-0.608-6.253c-0.604-6.212-1.532-13.604,6.502-14.386
      c3.396-0.33,6.433,1.673,7.288,5.311l0.083-0.008c-0.028-1.585,1.456-2.65,2.684-3.354l10.854-5.738l0.629,6.46l-8.689,4.356
      c-2.073,1.038-2.829,1.864-2.592,4.307l0.182,1.864l12.01-1.168l0.563,5.798L456.578,245.027z M468.354,238.029l-0.185-1.905
      c-0.278-2.857-1.011-6.089-4.613-5.738c-3.479,0.338-3.454,3.597-3.173,6.496l0.186,1.905L468.354,238.029z"/>
    <path fill="#01417B" d="M454.342,198.889c-0.337,1.965-0.301,4.055,0.181,6.036c0.471,1.941,1.928,4.242,5.001,3.496
      c4.893-1.187-0.172-13.06,9.29-15.356c6.187-1.501,9.72,2.823,11.103,8.524c0.746,3.073,0.675,4.546,0.665,7.503l-5.223,0.711
      c0.58-2.196,0.729-4.587,0.188-6.811c-0.521-2.143-2.309-4.749-4.855-4.131c-5.378,1.305-0.152,13.139-9.493,15.405
      c-6.308,1.531-9.8-2.803-11.007-7.776c-0.588-2.426-0.814-4.769-0.627-6.998L454.342,198.889z"/>
  </g>
</g>
</svg>
