<?xml version="1.0" encoding="utf-8"?>
<!DOCTYPE svg PUBLIC "-//W3C//DTD SVG 1.1//EN" "http://www.w3.org/Graphics/SVG/1.1/DTD/svg11.dtd">
<svg version="1.1" xmlns="http://www.w3.org/2000/svg" x="0px" y="0px" width="800px" height="400px">
<g>
  <path fill="#000000" d="M774.54,402.417c-74.176-55.157-117.935-132.772-157.562-213.432 c-1.051-2.13-2.127-4.24-3.431-6.853c-9.757,10.446-19.238,20.597-30.361,32.501c-28.143-46.836-52.511-91.76-70.018-142.029 c-35.785,133.829-99.284,248.052-212.787,329.812c-14.366,0-28.734,0-43.105,0c10-7.603,20.096-15.072,29.979-22.819 c80.516-63.088,138.117-143.245,174.771-238.273c16.678-43.241,30.466-87.602,45.531-131.463c1.191-3.473,2.118-7.029,2.966-9.861 c24.122,56.953,48.322,114.103,73.569,173.716c12.24-12.853,22.176-23.289,32.697-34.342c11.094,21.444,21.375,42.434,32.64,62.878 c36.133,65.573,78.245,126.688,134.238,177.241c8.532,7.707,17.174,15.288,25.764,22.924 C797.801,402.417,786.175,402.417,774.54,402.417z"/>
  <path fill="#000000" d="M142.457,402.417c0,0,153.392-72.594,267.794-331.968l43.804,54.462l-14.117,26.066l-26.063-34.757 c0,0-56.478,170.882-223.737,286.196H142.457z"/>
  <path fill="#000000" d="M0,402.417c0,0,170.118-92.743,288.994-297.878l45.362,52.439l-12.567,25.618l-29.719-34.327 c0,0-100.943,162.427-243.392,254.147H0z"/>
  <path fill="#000000" d="M352.051,402.417c0,0,110.209-68.315,165.773-248.009c0,0,21.862,58.096,49.641,93.165 c2.735-3.644,22.312-22.317,22.312-22.317s47.823,109.303,128.19,177.161H352.051z"/>
</g>
</svg>
