<svg xmlns="http://www.w3.org/2000/svg" xmlns:xlink="http://www.w3.org/1999/xlink" version="1.1" width="900" height="558" viewbox="0 0 900 558">
<defs id="defs6">
    <clipPath id="clipPath16">
        <path d="m 0,657.28 841.89,0 L 841.89,0 0,0 0,657.28 z" id="path18"/>
    </clipPath>
    <clipPath id="clipPath38">
        <path d="m 0,657.28 841.89,0 L 841.89,0 0,0 0,657.28 z" id="path40"/>
    </clipPath>
    <clipPath id="clipPath54">
        <path d="m 0,657.28 841.89,0 L 841.89,0 0,0 0,657.28 z" id="path56"/>
    </clipPath>
    <clipPath id="clipPath86">
        <path d="m 0,657.28 841.89,0 L 841.89,0 0,0 0,657.28 z" id="path88"/>
    </clipPath>
    <clipPath id="clipPath104">
        <path d="m 0,657.28 841.89,0 L 841.89,0 0,0 0,657.28 z" id="path106"/>
    </clipPath>
    <clipPath id="clipPath126">
        <path d="m 0,657.28 841.89,0 L 841.89,0 0,0 0,657.28 z" id="path128"/>
    </clipPath>
    <clipPath id="clipPath144">
        <path d="m 0,657.28 841.89,0 L 841.89,0 0,0 0,657.28 z" id="path146"/>
    </clipPath>
    <clipPath id="clipPath162">
        <path d="m 0,657.28 841.89,0 L 841.89,0 0,0 0,657.28 z" id="path164"/>
    </clipPath>
    <clipPath id="clipPath182">
        <path d="m 0,657.28 841.89,0 L 841.89,0 0,0 0,657.28 z" id="path184"/>
    </clipPath>
    <clipPath id="clipPath198">
        <path d="m 0,657.28 841.89,0 L 841.89,0 0,0 0,657.28 z" id="path200"/>
    </clipPath>
    <clipPath id="clipPath224">
        <path d="m 0,657.28 841.89,0 L 841.89,0 0,0 0,657.28 z" id="path226"/>
    </clipPath>
</defs>
<g transform="matrix(1.25,0,0,-1.25,0,557.28002)" id="g10">
    <g transform="matrix(12.116223,0,0,12.116223,-9210.1956,-7252.1936)" id="g3393">
        <g id="g3372">
            <g id="g3348">
                <path d="m 761.8047,607.583 0,5.223 2.355,0 1.862,-3.262 1.896,3.262 2.321,0 0,-5.223 -1.543,0 0,3.722 -2.157,-3.722 -1.042,0 -2.141,3.722 0,-3.722 -1.551,0 z" id="path218" style="fill:#151417;fill-opacity:1;fill-rule:nonzero;stroke:none"/>
                <path d="m 773.7959,607.5181 1.867,0 c 0.948,0 1.603,0.042 2.033,0.367 0.403,0.309 0.561,0.804 0.561,1.58 l 0,1.459 c 0,0.775 -0.165,1.278 -0.561,1.58 -0.417,0.317 -1.077,0.367 -2.033,0.367 l -1.874,0 c -0.956,0 -1.603,-0.05 -2.027,-0.367 -0.431,-0.323 -0.567,-0.84 -0.567,-1.646 l 0,-1.422 c 0,-0.754 0.143,-1.235 0.567,-1.551 0.445,-0.331 1.099,-0.367 2.034,-0.367 m 0.431,1.307 c -1.014,0 -1.409,0.159 -1.409,0.985 l 0,0.726 c 0,0.883 0.368,1.027 1.401,1.027 l 1.02,0 c 1.013,0 1.402,-0.151 1.402,-0.998 l 0,-0.741 c 0,-0.848 -0.389,-0.999 -1.402,-0.999 l -1.012,0 z" id="path230" style="fill:#151417;fill-opacity:1;fill-rule:nonzero;stroke:none"/>
                <path d="m 780.7998,612.8062 0,-3.097 c 0,-0.769 0.303,-0.89 1.286,-0.89 l 0.906,0 c 0.819,0 1.127,0.151 1.127,0.89 l 0,3.097 1.596,0 0,-3.593 c 0,-1.293 -0.668,-1.695 -2.213,-1.695 l -1.782,0 c -1.854,0 -2.515,0.381 -2.515,1.695 l 0,3.593 1.595,0 z" id="path234" style="fill:#151417;fill-opacity:1;fill-rule:nonzero;stroke:none"/>
                <path d="m 791.4902,607.583 -3.133,3.8 0,-3.8 -1.594,0 0,5.223 2.365,0 3.109,-3.83 0,3.83 1.589,0 0,-5.223 -2.336,0 z" id="path238" style="fill:#151417;fill-opacity:1;fill-rule:nonzero;stroke:none"/>
                <path d="m 796.6855,607.583 0,3.944 -2.185,0 0,1.279 5.964,0 0,-1.279 -2.185,0 0,-3.944 -1.594,0 z" id="path242" style="fill:#151417;fill-opacity:1;fill-rule:nonzero;stroke:none"/>
                <path d="m 801.5898,607.583 0.51,0.869 3.183,0 0.502,-0.869 1.754,0 -2.803,5.223 -2.031,0 -2.853,-5.223 1.738,0 z m 1.115,2.126 0.99,1.847 1.013,-1.847 -2.003,0 z" id="path246" style="fill:#151417;fill-opacity:1;fill-rule:nonzero;stroke:none"/>
                <path d="m 808.135,612.806 1.596,0 0,-5.223 -1.596,0 0,5.223 z" id="path248" style="fill:#151417;fill-opacity:1;fill-rule:nonzero;stroke:none"/>
                <path d="m 815.5918,607.583 -3.132,3.8 0,-3.8 -1.595,0 0,5.223 2.364,0 3.11,-3.83 0,3.83 1.589,0 0,-5.223 -2.336,0 z" id="path252" style="fill:#151417;fill-opacity:1;fill-rule:nonzero;stroke:none"/>
            </g>
            <g id="g3358">
                <path d="m 766.3516,603.5474 0,0.688 -1.611,0 -0.196,0 -0.685,0 0,-3.564 0.685,0 0,-0.002 1.807,0 0,0.687 -1.611,0 0,0.817 1.611,0 0,0.686 -1.611,0 0,0.688 1.611,0 z" id="path256" style="fill:#151417;fill-opacity:1;fill-rule:nonzero;stroke:none"/>
                <path d="m 803.166,603.5474 0,0.688 -1.613,0 -0.194,0 -0.687,0 0,-3.564 0.687,0 0,-0.002 1.807,0 0,0.687 -1.613,0 0,0.817 1.613,0 0,0.686 -1.613,0 0,0.688 1.613,0 z" id="path260" style="fill:#151417;fill-opacity:1;fill-rule:nonzero;stroke:none"/>
                <path d="m 779.2871,601.8823 0,2.362 -0.926,0 0,-2.386 c 0,-0.122 0,-0.535 -0.584,-0.535 -0.584,0 -0.56,0.559 -0.56,0.559 l 0,2.362 -0.925,0 0,-2.386 c 0,0 -0.073,-1.364 1.51,-1.364 1.583,0 1.485,1.388 1.485,1.388" id="path264" style="fill:#151417;fill-opacity:1;fill-rule:nonzero;stroke:none"/>
                <path d="m 783.889,600.619 -1.014,0 0,3.616 1.014,0 0,-3.616 z" id="path266" style="fill:#151417;fill-opacity:1;fill-rule:nonzero;stroke:none"/>
                <path d="m 794.2852,600.6553 -0.869,0 0.127,3.488 1.681,-1.591 1.627,1.629 0.181,-3.526 -0.868,0 -0.053,1.5 -0.814,-0.795 -0.94,0.832 -0.072,-1.537 z" id="path270" style="fill:#151417;fill-opacity:1;fill-rule:nonzero;stroke:none"/>
                <path d="m 807.502,600.6724 -0.904,0 0,3.563 2.242,-1.791 0,1.791 0.868,0 0,-3.689 -2.188,1.735 -0.018,-1.609 z" id="path274" style="fill:#151417;fill-opacity:1;fill-rule:nonzero;stroke:none"/>
                <path d="m 815.873,604.2349 -2.911,0 0,-0.777 0.958,0 0,-2.768 0.904,0 0,2.768 1.049,0 0,0.777 z" id="path278" style="fill:#151417;fill-opacity:1;fill-rule:nonzero;stroke:none"/>
                <path d="m 771.5313,601.4189 c -0.558,0 -1.01,0.453 -1.01,1.013 0,0.556 0.452,1.009 1.01,1.009 0.559,0 1.012,-0.453 1.012,-1.009 0,-0.56 -0.453,-1.013 -1.012,-1.013 m -0.023,2.874 c -1.03,0 -1.864,-0.834 -1.864,-1.861 0,-1.031 0.834,-1.864 1.864,-1.864 0.154,0 0.302,0.021 0.445,0.055 l 0.808,-0.42 0,0.853 c 0.374,0.34 0.609,0.83 0.609,1.376 0,1.027 -0.833,1.861 -1.862,1.861" id="path282" style="fill:#151417;fill-opacity:1;fill-rule:nonzero;stroke:none"/>
                <path d="m 789.3281,602.4722 c -0.174,-0.235 -0.92,-0.174 -0.92,-0.174 l 0,1.149 c 0.291,0.005 0.691,-0.008 0.816,-0.061 0.125,-0.058 0.249,-0.224 0.235,-0.535 -0.014,-0.311 -0.131,-0.379 -0.131,-0.379 m 0.545,1.52 c -0.424,0.25 -1.432,0.235 -1.432,0.235 l -1.045,0 0,-3.615 1.012,0 0,0.864 c 0.83,0.022 1.196,0.124 1.196,0.124 0.478,0.105 0.829,0.621 0.829,1.236 0,0.614 -0.185,0.937 -0.56,1.156" id="path286" style="fill:#151417;fill-opacity:1;fill-rule:nonzero;stroke:none"/>
            </g>
        </g>
        <g id="g3369">
            <path d="m 789.376,624.3794 -5.236,2.212 c -0.117,0.049 -0.243,0.076 -0.378,0.076 -0.393,0 -0.731,-0.232 -0.885,-0.567 l -1.732,-3.375 c -0.077,-0.139 -0.121,-0.299 -0.121,-0.469 0,-0.539 0.437,-0.976 0.976,-0.976 l 15.73,0 c 0.54,0 0.976,0.437 0.976,0.976 0,0.17 -0.043,0.33 -0.12,0.469 l -1.731,3.375 c -0.155,0.335 -0.493,0.567 -0.886,0.567 -0.133,0 -0.261,-0.027 -0.377,-0.076 l -5.237,-2.212 c -0.148,-0.063 -0.318,-0.098 -0.49,-0.098 -0.172,0 -0.342,0.035 -0.489,0.098 m 0.489,5.784 c 0.518,0 1.008,0.113 1.449,0.317 l 6.725,3.146 c 0.108,0.045 0.227,0.071 0.35,0.071 0.341,0 0.639,-0.191 0.792,-0.471 l 8.226,-16.058 c 0.052,-0.114 0.081,-0.239 0.081,-0.372 0,-0.496 -0.403,-0.899 -0.9,-0.899 l -33.445,0 c -0.496,0 -0.899,0.403 -0.899,0.899 0,0.133 0.029,0.258 0.08,0.372 l 8.227,16.058 c 0.152,0.28 0.449,0.471 0.791,0.471 0.125,0 0.242,-0.026 0.349,-0.071 l 6.727,-3.146 c 0.44,-0.204 0.931,-0.317 1.447,-0.317" id="path290" style="fill:#e51636;fill-opacity:1;fill-rule:nonzero;stroke:none"/>
        </g>
    </g>
</g>
</svg>
